<?xml version="1.0" encoding="iso-8859-1"?>
<!-- Generator: Adobe Illustrator 16.0.0, SVG Export Plug-In . SVG Version: 6.00 Build 0)  -->
<!DOCTYPE svg PUBLIC "-//W3C//DTD SVG 1.1//EN" "http://www.w3.org/Graphics/SVG/1.1/DTD/svg11.dtd">
<svg version="1.1" xmlns="http://www.w3.org/2000/svg" xmlns:xlink="http://www.w3.org/1999/xlink" x="0px" y="0px" width="512px"
	 height="512px" viewBox="0 0 512 512" style="enable-background:new 0 0 512 512;" xml:space="preserve">
<g id="B215_x2C__Database_x2C__Server_x2C__Sql_x2C__Storage_x2C__Share">
	<g>
		<g>
			<g>
				<path d="M321.134,315.839c-8.396-3.498-15.156-7.596-20.134-12.123v33.794c0,15.841,35.885,33.49,87.377,33.49
					C440.54,371,481,352.997,481,337.51v-34.564c-17.728,15.514-56.236,24.552-92.623,24.552
					C363.058,327.497,339.177,323.356,321.134,315.839z"/>
				<path d="M210.988,283.91c0.002-0.079,0.006-0.158,0.012-0.237v-41.145c-17.727,15.514-56.237,24.553-92.623,24.553
					c-25.32,0-49.201-4.141-67.244-11.658C42.739,251.925,35.977,247.827,31,243.3v40.374c0.006,0.078,0.01,0.157,0.012,0.236
					c0.452,16.02,35.665,33.171,87.365,33.171C170.847,317.081,210.546,299.568,210.988,283.91z"/>
				<path d="M321.134,369.342c-8.396-3.498-15.156-7.596-20.134-12.123v30.291c0,15.841,35.885,33.49,87.377,33.49
					C440.54,421,481,402.997,481,387.51v-31.062C463.272,371.962,424.764,381,388.377,381
					C363.058,381,339.177,376.859,321.134,369.342z"/>
				<path d="M321.134,419.342c-8.396-3.498-15.156-7.596-20.134-12.123V447.6c0.006,0.076,0.01,0.152,0.012,0.229
					c0.452,16.02,35.665,33.171,87.365,33.171c52.47,0,92.17-17.513,92.611-33.171c0.002-0.077,0.006-0.154,0.012-0.23v-41.15
					C463.272,421.962,424.764,431,388.377,431C363.058,431,339.177,426.859,321.134,419.342z"/>
				<path d="M118.377,153.579c52.163,0,92.623-18.003,92.623-33.491V83.434c-0.026,0.023-0.056,0.045-0.082,0.068
					c-0.488,0.425-0.994,0.845-1.513,1.261c-0.122,0.098-0.247,0.194-0.371,0.291c-0.444,0.348-0.898,0.693-1.363,1.035
					c-0.117,0.086-0.232,0.173-0.35,0.258c-0.558,0.403-1.131,0.801-1.717,1.194c-0.126,0.084-0.255,0.167-0.383,0.251
					c-0.502,0.331-1.014,0.658-1.535,0.981c-0.139,0.086-0.276,0.173-0.417,0.259c-0.624,0.38-1.259,0.756-1.909,1.126
					c-0.125,0.071-0.252,0.14-0.377,0.21c-0.559,0.314-1.127,0.625-1.704,0.931c-0.163,0.086-0.324,0.173-0.487,0.258
					c-0.684,0.357-1.379,0.71-2.087,1.057c-0.11,0.054-0.224,0.107-0.335,0.161c-0.623,0.302-1.255,0.599-1.896,0.892
					c-0.181,0.083-0.362,0.167-0.545,0.249c-0.74,0.333-1.489,0.663-2.251,0.986c-0.089,0.038-0.181,0.074-0.27,0.112
					c-0.691,0.291-1.393,0.576-2.102,0.857c-0.197,0.079-0.394,0.157-0.593,0.234c-0.794,0.311-1.595,0.617-2.41,0.916
					c-0.042,0.015-0.084,0.03-0.126,0.045c-0.779,0.285-1.569,0.563-2.366,0.838c-0.21,0.072-0.419,0.145-0.63,0.216
					c-0.83,0.282-1.666,0.56-2.514,0.83c-0.011,0.004-0.021,0.007-0.032,0.011c-0.861,0.274-1.733,0.541-2.611,0.803
					c-0.219,0.065-0.438,0.13-0.658,0.195c-0.81,0.238-1.625,0.473-2.449,0.701c-0.079,0.021-0.157,0.044-0.236,0.066
					c-0.893,0.246-1.795,0.484-2.703,0.719c-0.225,0.058-0.45,0.115-0.676,0.172c-0.804,0.204-1.614,0.404-2.429,0.599
					c-0.127,0.03-0.253,0.062-0.381,0.092c-0.92,0.218-1.849,0.428-2.782,0.634c-0.229,0.05-0.459,0.1-0.689,0.15
					c-0.804,0.174-1.612,0.344-2.425,0.51c-0.166,0.034-0.33,0.068-0.496,0.102c-0.946,0.19-1.898,0.373-2.854,0.551
					c-0.225,0.042-0.45,0.083-0.675,0.124c-0.81,0.148-1.624,0.292-2.44,0.43c-0.198,0.034-0.395,0.069-0.594,0.102
					c-0.966,0.162-1.936,0.316-2.91,0.466c-0.214,0.033-0.429,0.064-0.644,0.096c-0.824,0.124-1.65,0.243-2.479,0.358
					c-0.22,0.03-0.44,0.062-0.661,0.092c-0.982,0.133-1.968,0.26-2.956,0.38c-0.2,0.024-0.4,0.047-0.6,0.071
					c-0.841,0.1-1.683,0.195-2.527,0.286c-0.236,0.025-0.471,0.052-0.707,0.076c-0.997,0.104-1.996,0.203-2.997,0.294
					c-0.173,0.016-0.347,0.03-0.52,0.045c-0.862,0.077-1.726,0.148-2.591,0.215c-0.252,0.02-0.504,0.04-0.756,0.058
					c-1.005,0.075-2.011,0.145-3.017,0.206c-0.135,0.008-0.271,0.015-0.405,0.023c-0.896,0.053-1.792,0.1-2.688,0.143
					c-0.259,0.012-0.518,0.024-0.776,0.036c-1.012,0.045-2.023,0.085-3.035,0.116c-0.079,0.002-0.157,0.004-0.236,0.006
					c-0.942,0.028-1.883,0.049-2.823,0.065c-0.264,0.004-0.528,0.009-0.792,0.012c-1.013,0.014-2.026,0.023-3.036,0.023
					c-25.32,0-49.201-4.14-67.244-11.658c-0.953-0.397-1.878-0.804-2.789-1.216c-0.146-0.066-0.294-0.131-0.439-0.198
					c-0.861-0.395-1.7-0.797-2.522-1.205c-0.163-0.081-0.325-0.162-0.486-0.244c-0.82-0.414-1.624-0.833-2.403-1.259
					c-0.11-0.06-0.216-0.121-0.325-0.182c-0.763-0.421-1.507-0.849-2.23-1.282c-0.067-0.04-0.137-0.08-0.204-0.12
					c-0.741-0.448-1.457-0.903-2.156-1.363c-0.131-0.086-0.263-0.172-0.393-0.259c-0.674-0.451-1.328-0.907-1.962-1.369
					c-0.122-0.088-0.24-0.177-0.36-0.266c-0.643-0.476-1.269-0.957-1.869-1.444c-0.055-0.044-0.106-0.089-0.161-0.134
					c-0.579-0.475-1.135-0.955-1.673-1.439c-0.052-0.046-0.11-0.091-0.161-0.138v35.883C31,135.929,66.885,153.579,118.377,153.579z
					"/>
				<path d="M118.377,207.081c52.163,0,92.623-18.003,92.623-33.491v-34.564c-17.727,15.514-56.237,24.553-92.623,24.553
					c-25.32,0-49.201-4.14-67.244-11.658c-8.395-3.498-15.157-7.596-20.134-12.124v33.793
					C31,189.431,66.885,207.081,118.377,207.081z"/>
				<path d="M118.377,257.081c52.163,0,92.623-18.003,92.623-33.491v-31.062c-17.727,15.514-56.237,24.553-92.623,24.553
					c-25.32,0-49.201-4.14-67.244-11.658C42.739,201.925,35.977,197.827,31,193.3v30.291C31,239.431,66.885,257.081,118.377,257.081
					z"/>
				<path d="M118.377,97.981c52.163,0,92.623-18.003,92.623-33.49S170.541,31,118.377,31C66.885,31,31,48.65,31,64.491
					C31,80.331,66.885,97.981,118.377,97.981z M156,56h20v20h-20V56z M126,56h20v20h-20V56z M96,56h20v20H96V56z M66,56h20v20H66V56
					z"/>
				<path d="M301,228.41c0,15.841,35.885,33.491,87.377,33.491C440.54,261.9,481,243.897,481,228.41s-40.46-33.491-92.623-33.491
					C336.885,194.919,301,212.569,301,228.41z M356,236h-20v-20h20V236z M386,236h-20v-20h20V236z M426,216h20v20h-20V216z M396,216
					h20v20h-20V216z"/>
				<path d="M479.403,248.683c-0.121,0.096-0.245,0.192-0.367,0.288c-0.445,0.35-0.901,0.696-1.368,1.039
					c-0.115,0.085-0.229,0.171-0.346,0.255c-0.559,0.403-1.131,0.801-1.719,1.195c-0.126,0.084-0.256,0.168-0.384,0.252
					c-0.5,0.33-1.01,0.656-1.53,0.978c-0.141,0.088-0.28,0.176-0.422,0.263c-0.623,0.38-1.258,0.756-1.907,1.125
					c-0.125,0.071-0.253,0.141-0.379,0.212c-0.558,0.313-1.124,0.622-1.7,0.928c-0.164,0.087-0.326,0.175-0.491,0.261
					c-0.683,0.356-1.377,0.709-2.084,1.056c-0.112,0.055-0.229,0.108-0.342,0.164c-0.621,0.301-1.252,0.597-1.891,0.89
					c-0.182,0.083-0.362,0.166-0.546,0.249c-0.739,0.333-1.487,0.662-2.249,0.984c-0.093,0.039-0.187,0.077-0.279,0.116
					c-0.687,0.288-1.383,0.571-2.086,0.851c-0.202,0.08-0.403,0.16-0.606,0.239c-0.79,0.31-1.588,0.614-2.399,0.913
					c-0.05,0.018-0.101,0.035-0.151,0.054c-0.771,0.282-1.554,0.559-2.343,0.83c-0.212,0.073-0.424,0.146-0.637,0.218
					c-0.827,0.281-1.66,0.559-2.505,0.828c-0.014,0.004-0.026,0.008-0.04,0.013c-0.858,0.273-1.728,0.539-2.604,0.801
					c-0.224,0.066-0.447,0.133-0.672,0.199c-0.805,0.236-1.614,0.469-2.433,0.696c-0.082,0.022-0.164,0.046-0.246,0.069
					c-0.89,0.245-1.789,0.482-2.693,0.716c-0.23,0.06-0.463,0.118-0.695,0.178c-0.797,0.202-1.6,0.4-2.407,0.593
					c-0.132,0.032-0.262,0.064-0.394,0.096c-0.919,0.218-1.845,0.428-2.776,0.633c-0.232,0.052-0.466,0.102-0.698,0.152
					c-0.796,0.172-1.597,0.341-2.4,0.504c-0.175,0.036-0.348,0.072-0.522,0.107c-0.941,0.189-1.89,0.372-2.841,0.549
					c-0.229,0.042-0.46,0.084-0.69,0.126c-0.806,0.146-1.616,0.29-2.429,0.428c-0.198,0.034-0.396,0.068-0.595,0.103
					c-0.966,0.161-1.936,0.316-2.909,0.466c-0.217,0.033-0.434,0.064-0.651,0.097c-0.819,0.123-1.642,0.242-2.467,0.356
					c-0.224,0.031-0.447,0.063-0.672,0.093c-0.981,0.133-1.966,0.26-2.953,0.38c-0.199,0.024-0.398,0.047-0.597,0.071
					c-0.839,0.1-1.68,0.194-2.522,0.285c-0.239,0.026-0.479,0.053-0.719,0.078c-0.995,0.104-1.993,0.202-2.992,0.294
					c-0.174,0.016-0.349,0.029-0.522,0.045c-0.86,0.076-1.722,0.148-2.583,0.215c-0.255,0.02-0.509,0.04-0.763,0.059
					c-1.005,0.075-2.011,0.145-3.017,0.206c-0.135,0.008-0.269,0.015-0.403,0.022c-0.896,0.054-1.794,0.101-2.691,0.144
					c-0.258,0.012-0.516,0.024-0.774,0.036c-1.012,0.045-2.024,0.084-3.035,0.115c-0.079,0.003-0.157,0.004-0.236,0.007
					c-0.942,0.027-1.884,0.049-2.824,0.064c-0.264,0.005-0.527,0.009-0.791,0.013c-1.013,0.014-2.025,0.023-3.036,0.023
					c-25.319,0-49.2-4.141-67.243-11.658c-0.955-0.397-1.882-0.806-2.794-1.219c-0.144-0.064-0.288-0.129-0.431-0.193
					c-0.865-0.397-1.709-0.802-2.535-1.212c-0.156-0.077-0.312-0.156-0.467-0.234c-0.826-0.416-1.636-0.838-2.422-1.268
					c-0.101-0.056-0.198-0.112-0.299-0.168c-0.776-0.429-1.533-0.862-2.269-1.304c-0.059-0.035-0.118-0.069-0.176-0.104
					c-0.749-0.452-1.471-0.912-2.176-1.376c-0.124-0.082-0.249-0.163-0.372-0.245c-0.68-0.454-1.339-0.914-1.978-1.38
					c-0.116-0.085-0.23-0.17-0.346-0.256c-0.646-0.479-1.277-0.962-1.881-1.453c-0.049-0.04-0.096-0.081-0.145-0.121
					c-0.586-0.479-1.149-0.965-1.692-1.456c-0.05-0.044-0.104-0.087-0.153-0.131v35.883c0,15.841,35.885,33.49,87.377,33.49
					c52.163,0,92.623-18.003,92.623-33.49v-36.654c-0.026,0.023-0.055,0.045-0.081,0.067
					C480.43,247.846,479.924,248.267,479.403,248.683z"/>
				<path d="M377,123.929l-11.465-11.464c-1.951-1.952-5.119-1.952-7.07,0c-1.953,1.953-1.953,5.119,0,7.071l19.998,19.998
					c0.232,0.233,0.489,0.441,0.765,0.625c0.122,0.082,0.255,0.138,0.382,0.208c0.158,0.086,0.311,0.182,0.479,0.251
					c0.163,0.068,0.334,0.106,0.503,0.156c0.144,0.042,0.281,0.098,0.431,0.127c0.322,0.064,0.65,0.099,0.979,0.099
					s0.656-0.034,0.979-0.099c0.149-0.029,0.287-0.085,0.431-0.127c0.169-0.05,0.34-0.088,0.503-0.156
					c0.168-0.07,0.32-0.165,0.479-0.251c0.127-0.07,0.26-0.126,0.382-0.208c0.275-0.184,0.532-0.392,0.765-0.625l19.998-19.998
					c1.953-1.953,1.953-5.119,0-7.071c-1.951-1.952-5.119-1.952-7.07,0L387,123.929V76c0-2.761-2.238-5-5-5H252
					c-2.762,0-5,2.239-5,5s2.238,5,5,5h125V123.929z"/>
				<path d="M242,431H117v-42.929l11.465,11.464c0.977,0.977,2.256,1.465,3.535,1.465s2.559-0.488,3.535-1.465
					c1.953-1.952,1.953-5.118,0-7.07L115.54,372.47c-0.234-0.234-0.492-0.444-0.77-0.63c-0.113-0.075-0.236-0.127-0.354-0.192
					c-0.167-0.093-0.328-0.192-0.505-0.266c-0.16-0.066-0.327-0.104-0.492-0.153c-0.147-0.043-0.288-0.1-0.44-0.13
					c-0.646-0.128-1.311-0.128-1.957,0c-0.152,0.03-0.293,0.087-0.44,0.131c-0.165,0.049-0.332,0.086-0.492,0.152
					c-0.178,0.073-0.34,0.174-0.507,0.267c-0.117,0.065-0.24,0.116-0.353,0.191c-0.277,0.186-0.536,0.396-0.77,0.63l-19.995,19.995
					c-1.953,1.952-1.953,5.118,0,7.07c1.953,1.953,5.117,1.953,7.07,0L107,388.071V436c0,2.762,2.238,5,5,5h130c2.762,0,5-2.238,5-5
					S244.762,431,242,431z"/>
			</g>
		</g>
	</g>
</g>
<g id="Layer_1">
</g>
</svg>
