<?xml version="1.0" encoding="UTF-8" standalone="no"?> <svg xmlns="http://www.w3.org/2000/svg" viewBox="0 0 64 64"><g id="Layer_20" data-name="Layer 20"><path d="M13,57.58A1.43,1.43,0,0,0,14.42,59H19V50H13Z"/><path d="M9,36V48H55V36Zm7.17,9.83a.84.84,0,0,1-.61.23.91.91,0,0,1-.63-.23.85.85,0,0,1-.26-.66.84.84,0,0,1,.25-.61.88.88,0,0,1,1.25,0,.8.8,0,0,1,.26.61A.83.83,0,0,1,16.17,45.83Zm8.32-1.09a2.63,2.63,0,0,1-1.17,1,4.33,4.33,0,0,1-1.83.35,4.13,4.13,0,0,1-2.1-.48,2.7,2.7,0,0,1-.95-.92,2,2,0,0,1-.37-1.12.73.73,0,0,1,.22-.54.75.75,0,0,1,.56-.23.63.63,0,0,1,.46.18,1.3,1.3,0,0,1,.33.52,3.88,3.88,0,0,0,.35.68,1.44,1.44,0,0,0,.54.46,2,2,0,0,0,.91.18,2.09,2.09,0,0,0,1.26-.36,1.09,1.09,0,0,0,.48-.9,1,1,0,0,0-.26-.7,1.75,1.75,0,0,0-.68-.4,8.55,8.55,0,0,0-1.1-.3,8.79,8.79,0,0,1-1.55-.51,2.45,2.45,0,0,1-1-.79,2.08,2.08,0,0,1-.37-1.25,2.14,2.14,0,0,1,.39-1.26,2.5,2.5,0,0,1,1.12-.84,4.52,4.52,0,0,1,1.72-.3,4.26,4.26,0,0,1,1.37.2,2.94,2.94,0,0,1,1,.52,2.11,2.11,0,0,1,.55.68,1.55,1.55,0,0,1,.18.7.81.81,0,0,1-.22.56.7.7,0,0,1-.55.25.61.61,0,0,1-.45-.15,2,2,0,0,1-.34-.49,2.15,2.15,0,0,0-.56-.76,1.66,1.66,0,0,0-1.06-.27,1.86,1.86,0,0,0-1.08.29.87.87,0,0,0-.42.72.67.67,0,0,0,.15.44,1.1,1.1,0,0,0,.38.32,2.66,2.66,0,0,0,.5.21c.17.06.45.13.83.23A13.52,13.52,0,0,1,23,41a4.44,4.44,0,0,1,1,.5,2.07,2.07,0,0,1,.64.74,2.32,2.32,0,0,1,.24,1.1A2.5,2.5,0,0,1,24.49,44.74Zm9-.65a3.34,3.34,0,0,1-.64.94,3.25,3.25,0,0,1-1.1.75,4.05,4.05,0,0,1-1.58.28,5.83,5.83,0,0,1-1.23-.12,3.35,3.35,0,0,1-1-.41,3.69,3.69,0,0,1-.84-.71,4.42,4.42,0,0,1-.58-.91,4.65,4.65,0,0,1-.36-1.07,5.81,5.81,0,0,1-.12-1.2,5.34,5.34,0,0,1,.3-1.86,4,4,0,0,1,.87-1.41,3.73,3.73,0,0,1,1.32-.88,4.12,4.12,0,0,1,1.61-.31A4,4,0,0,1,32,37.6a3.38,3.38,0,0,1,1.24,1,2,2,0,0,1,.44,1.15.76.76,0,0,1-.21.53.68.68,0,0,1-.51.23.67.67,0,0,1-.5-.16,2,2,0,0,1-.38-.54,2.51,2.51,0,0,0-.8-1,1.93,1.93,0,0,0-1.13-.32,2.07,2.07,0,0,0-1.71.82,3.69,3.69,0,0,0-.63,2.31,4.25,4.25,0,0,0,.28,1.67,2,2,0,0,0,.79,1,2.22,2.22,0,0,0,1.21.33,2.12,2.12,0,0,0,1.27-.37,2.19,2.19,0,0,0,.78-1.09,2.09,2.09,0,0,1,.28-.56.62.62,0,0,1,.52-.21.73.73,0,0,1,.54.22.7.7,0,0,1,.22.54A2.36,2.36,0,0,1,33.49,44.09Zm7.89.65a2.69,2.69,0,0,1-1.17,1,4.35,4.35,0,0,1-1.84.35,4.16,4.16,0,0,1-2.1-.48,2.79,2.79,0,0,1-1-.92A2.11,2.11,0,0,1,35,43.54a.77.77,0,0,1,.78-.77.65.65,0,0,1,.46.18,1.3,1.3,0,0,1,.33.52,3.3,3.3,0,0,0,.35.68,1.44,1.44,0,0,0,.54.46,2,2,0,0,0,.91.18,2,2,0,0,0,1.25-.36,1.1,1.1,0,0,0,.49-.9.94.94,0,0,0-.27-.7,1.64,1.64,0,0,0-.67-.4,8.55,8.55,0,0,0-1.1-.3,8.52,8.52,0,0,1-1.55-.51,2.45,2.45,0,0,1-1-.79,2,2,0,0,1-.37-1.25,2.14,2.14,0,0,1,.39-1.26,2.45,2.45,0,0,1,1.12-.84,4.48,4.48,0,0,1,1.72-.3,4.3,4.3,0,0,1,1.37.2,2.79,2.79,0,0,1,1,.52,2.16,2.16,0,0,1,.56.68,1.55,1.55,0,0,1,.18.7.86.86,0,0,1-.22.56.7.7,0,0,1-.55.25.61.61,0,0,1-.45-.15,1.78,1.78,0,0,1-.34-.49,2.42,2.42,0,0,0-.56-.76,1.66,1.66,0,0,0-1.06-.27,1.9,1.9,0,0,0-1.09.29.88.88,0,0,0-.41.72.72.72,0,0,0,.14.44,1.14,1.14,0,0,0,.39.32,2.41,2.41,0,0,0,.5.21c.16.06.44.13.83.23s.92.24,1.31.37a4.32,4.32,0,0,1,1,.5,2.07,2.07,0,0,1,.64.74,2.32,2.32,0,0,1,.23,1.1A2.49,2.49,0,0,1,41.38,44.74Zm8,0a2.58,2.58,0,0,1-1.17,1,4.33,4.33,0,0,1-1.83.35,4.13,4.13,0,0,1-2.1-.48,2.7,2.7,0,0,1-1-.92A2,2,0,0,1,43,43.54a.73.73,0,0,1,.22-.54.75.75,0,0,1,.56-.23.67.67,0,0,1,.47.18,1.41,1.41,0,0,1,.32.52,3.88,3.88,0,0,0,.35.68,1.44,1.44,0,0,0,.54.46,2,2,0,0,0,.91.18,2.09,2.09,0,0,0,1.26-.36,1.09,1.09,0,0,0,.48-.9,1,1,0,0,0-.26-.7,1.75,1.75,0,0,0-.68-.4,8.55,8.55,0,0,0-1.1-.3,8.79,8.79,0,0,1-1.55-.51,2.45,2.45,0,0,1-1-.79,2.08,2.08,0,0,1-.37-1.25,2.14,2.14,0,0,1,.39-1.26,2.5,2.5,0,0,1,1.12-.84,4.52,4.52,0,0,1,1.72-.3,4.26,4.26,0,0,1,1.37.2,2.84,2.84,0,0,1,1,.52,2.3,2.3,0,0,1,.56.68,1.67,1.67,0,0,1,.17.7.81.81,0,0,1-.22.56.7.7,0,0,1-.55.25.61.61,0,0,1-.45-.15,2,2,0,0,1-.34-.49,2.15,2.15,0,0,0-.56-.76,1.65,1.65,0,0,0-1-.27,1.88,1.88,0,0,0-1.09.29.86.86,0,0,0-.41.72.66.66,0,0,0,.14.44,1.1,1.1,0,0,0,.38.32,2.66,2.66,0,0,0,.5.21c.17.06.45.13.83.23a13.52,13.52,0,0,1,1.32.37,4.44,4.44,0,0,1,1,.5,2,2,0,0,1,.64.74,2.32,2.32,0,0,1,.24,1.1A2.5,2.5,0,0,1,49.38,44.74Z"/><path d="M19,5H14.42A1.43,1.43,0,0,0,13,6.42V34h6Z"/><path d="M21,59H49.58A1.43,1.43,0,0,0,51,57.58V50H21Z"/><polygon points="42 6.57 42 15 49.73 15 42 6.57"/><path d="M51,17H41a1,1,0,0,1-1-1V5H21V34H51Z"/></g></svg>