<?xml version="1.0" encoding="utf-8"?>
<!-- Generator: Adobe Illustrator 25.2.3, SVG Export Plug-In . SVG Version: 6.00 Build 0)  -->
<svg version="1.1" id="Layer_3" xmlns="http://www.w3.org/2000/svg" xmlns:xlink="http://www.w3.org/1999/xlink" x="0px" y="0px"
	 viewBox="0 0 64 64" style="enable-background:new 0 0 64 64;" xml:space="preserve">
<style type="text/css">
	.st0{fill:#CCCCCC;}
	.st1{fill:#E6E6E5;}
	.st2{fill:#FFFFFF;}
	.st3{fill:#4179B3;}
	.st4{fill:#6598C5;}
	.st5{fill:#5B5B5D;}
	.st6{fill:#646465;}
	.st7{fill:#8A3B2E;}
	.st8{fill:#AD4A39;}
	.st9{fill:#5BA863;}
	.st10{fill:#93D46C;}
	.st11{fill:#F2B149;}
	.st12{fill:#F7D771;}
	.st13{fill:#999999;}
	.st14{fill:#315B86;}
	.st15{fill:#FBE087;}
	.st16{fill:#447E4A;}
	.st17{fill:#82382B;}
	.st18{fill:#838384;}
	.st19{fill:#939393;}
	.st20{fill:#BEBEBE;}
	.st21{fill:#A2A2A3;}
	.st22{fill:#E0E0E0;}
	.st23{fill:#BDBDBD;}
	.st24{fill:#EEAB46;}
	.st25{fill:#F3C14F;}
	.st26{fill:#F7E2CD;}
	.st27{fill:#B9AA9A;}
</style>
<g>
	<polygon class="st11" points="15,24 2,24 2,62 52,62 52,30 20,30 	"/>
	<polygon class="st12" points="20,30 26,30 26,26 16.7,26 	"/>
	<polygon class="st0" points="56,2 26,2 26,50 62,50 62,8 	"/>
	<path class="st1" d="M56,2H26v43h28c1.7,0,3-1.3,3-3V3L56,2z"/>
	<path class="st2" d="M48,37H35c-1.7,0-3-1.3-3-3V11c0-1.7,1.3-3,3-3h13c1.7,0,3,1.3,3,3v23C51,35.7,49.7,37,48,37z"/>
	<rect x="26" y="24" class="st3" width="36" height="16"/>
	<path class="st4" d="M26,24v13h28c1.7,0,3-1.3,3-3V24H26z"/>
	<rect x="2" y="56" class="st12" width="50" height="6"/>
	<polygon class="st13" points="56,2 56,8 62,8 	"/>
	<g>
		<path class="st14" d="M36.5,27H34c-0.6,0-1,0.4-1,1v9h2v-3h1.5c1.9,0,3.5-1.6,3.5-3.5S38.4,27,36.5,27z M36.5,32H35v-3h1.5
			c0.8,0,1.5,0.7,1.5,1.5S37.3,32,36.5,32z"/>
		<path class="st14" d="M53.5,27H51c-0.6,0-1,0.4-1,1v9h2v-3h1.5c1.9,0,3.5-1.6,3.5-3.5S55.4,27,53.5,27z M53.5,32H52v-3h1.5
			c0.8,0,1.5,0.7,1.5,1.5S54.3,32,53.5,32z"/>
		<polygon class="st14" points="46,31 43,31 43,27 41,27 41,37 43,37 43,33 46,33 46,37 48,37 48,27 46,27 		"/>
	</g>
	<g>
		<path class="st3" d="M36.3,20.7l-5-5c-0.4-0.4-0.4-1,0-1.4l5-5l1.4,1.4L33.4,15l4.3,4.3L36.3,20.7z"/>
	</g>
	<g>
		<path class="st3" d="M51.7,20.7l-1.4-1.4l4.3-4.3l-4.3-4.3l1.4-1.4l5,5c0.4,0.4,0.4,1,0,1.4L51.7,20.7z"/>
	</g>
	<g>
		<path class="st3" d="M45,17h-2v-2c0-0.6,0.4-1,1-1c1.1,0,2-0.9,2-2s-0.9-2-2-2s-2,0.9-2,2h-2c0-2.2,1.8-4,4-4s4,1.8,4,4
			c0,1.9-1.3,3.4-3,3.9V17z"/>
	</g>
	<g>
		<rect x="43" y="19" class="st3" width="2" height="2"/>
	</g>
</g>
</svg>
