<?xml version="1.0" encoding="iso-8859-1"?>
<!-- Generator: Adobe Illustrator 22.0.0, SVG Export Plug-In . SVG Version: 6.00 Build 0)  -->
<svg version="1.1" id="Layer_1" xmlns="http://www.w3.org/2000/svg" xmlns:xlink="http://www.w3.org/1999/xlink" x="0px" y="0px"
	 viewBox="0 0 100.25 100.25" style="enable-background:new 0 0 100.25 100.25;" xml:space="preserve">
<g>
	<path d="M79.567,29.924l-18.26-18.479C61.025,11.16,60.641,11,60.24,11H20.5c-0.829,0-1.5,0.672-1.5,1.5v75
		c0,0.828,0.671,1.5,1.5,1.5h58c0.829,0,1.5-0.672,1.5-1.5V30.979C80,30.585,79.844,30.206,79.567,29.924z M62,16.415L74.929,29.5
		H62V16.415z M22,86V14h37v17c0,0.828,0.671,1.5,1.5,1.5H77V86H22z"/>
	<path d="M50.065,69.534c-0.667-0.212-2.844-1.004-2.844-2.284c0-1.75,1.334-1.75,1.903-1.75c1.5,0,2.372,1.414,2.419,1.491
		c0.415,0.712,1.326,0.958,2.042,0.545c0.719-0.411,0.967-1.328,0.555-2.047c-0.07-0.122-1.751-2.989-5.016-2.989
		c-3.619,0-4.903,2.559-4.903,4.75c0,2.305,1.752,4.131,4.935,5.144C52,73.299,52,73.908,52,74.678c0,0.453-0.268,0.956-0.7,1.313
		c-0.303,0.25-0.948,0.646-1.895,0.463c-1.686-0.321-2.448-1.335-2.642-1.638c-0.447-0.699-1.375-0.903-2.072-0.456
		c-0.698,0.446-0.902,1.373-0.457,2.071c0.458,0.716,1.822,2.438,4.607,2.97c0.342,0.065,0.685,0.098,1.025,0.098
		c1.22,0,2.4-0.415,3.344-1.196c1.12-0.926,1.788-2.28,1.788-3.625C55,71.712,53.027,70.477,50.065,69.534z"/>
	<path d="M64.065,69.534c-0.667-0.212-2.844-1.004-2.844-2.284c0-1.75,1.334-1.75,1.903-1.75c1.5,0,2.372,1.414,2.419,1.491
		c0.415,0.712,1.326,0.958,2.042,0.545c0.719-0.411,0.967-1.328,0.555-2.047c-0.07-0.122-1.751-2.989-5.016-2.989
		c-3.619,0-4.903,2.559-4.903,4.75c0,2.305,1.752,4.131,4.935,5.144C66,73.299,66,73.908,66,74.678c0,0.453-0.268,0.956-0.7,1.313
		c-0.303,0.25-0.947,0.646-1.895,0.463c-1.686-0.321-2.448-1.335-2.642-1.638c-0.447-0.699-1.375-0.903-2.072-0.456
		c-0.698,0.446-0.902,1.373-0.457,2.071c0.458,0.716,1.822,2.438,4.607,2.97c0.342,0.065,0.685,0.098,1.025,0.098
		c1.22,0,2.4-0.415,3.344-1.196c1.12-0.926,1.788-2.28,1.788-3.625C69,71.712,67.027,70.477,64.065,69.534z"/>
	<path d="M39.614,73.582c-0.755-0.341-1.644-0.002-1.982,0.754c-0.972,2.164-2.348,2.164-2.8,2.164c-2.29,0-3.332-2.609-3.332-5.033
		c0-5.967,2.508-5.967,3.332-5.967c1.731,0,2.38,1.608,2.452,1.802c0.275,0.773,1.122,1.183,1.903,0.916
		c0.783-0.271,1.199-1.124,0.929-1.907c-0.488-1.415-2.151-3.811-5.283-3.811c-2.365,0-6.332,1.165-6.332,8.967
		c0,4.654,2.663,8.033,6.332,8.033c2.431,0,4.397-1.397,5.536-3.936C40.708,74.808,40.37,73.92,39.614,73.582z"/>
</g>
</svg>
